<svg width="256" height="256" viewBox="0 0 256 256" fill="none" xmlns="http://www.w3.org/2000/svg">
<path d="M152 176V186C152 189.314 149.314 192 146 192H78C74.6862 192 72 189.314 72 186V94C72 90.6862 74.6862 88 78 88H96V162C96 169.72 102.28 176 110 176H152ZM152 90V64H110C106.686 64 104 66.6862 104 70V162C104 165.314 106.686 168 110 168H178C181.314 168 184 165.314 184 162V96H158C154.7 96 152 93.3 152 90ZM182.243 82.2428L165.757 65.7572C164.632 64.6321 163.106 64 161.515 64H160V88H184V86.4853C184 84.894 183.368 83.368 182.243 82.2428Z" fill="url(#paint0_linear_202_21)"/>
<defs>
<linearGradient id="paint0_linear_202_21" x1="128" y1="64" x2="128" y2="192" gradientUnits="userSpaceOnUse">
<stop stop-color="#CC55FF"/>
<stop offset="1" stop-color="#55CCFF"/>
</linearGradient>
</defs>
</svg>
